<svg width="128" height="74" viewBox="0 0 128 74" fill="none" xmlns="http://www.w3.org/2000/svg">
<g clip-path="url(#clip0)">
<path d="M114.744 24.3556H113.99V12.7492C114.065 10.9968 113.21 9.06667 112.381 7.84762C110.821 5.5619 108.709 3.68254 106.295 2.4127C104.51 1.47302 102.121 0.888889 99.7569 0.787302C99.7318 0.787302 99.6815 0.787302 99.6563 0.761905H98.575C96.513 0.761905 94.2246 0.965079 92.7913 2.3873C92.7158 2.46349 92.5901 2.51429 92.4644 2.48889C92.3386 2.46349 92.2381 2.3873 92.1878 2.28571C92.1626 2.20952 92.1123 2.13333 92.0872 2.05714L91.5842 0.888889L75.7418 0.914286C75.7418 0.965079 75.7418 1.01587 75.7167 1.06667C75.7167 1.16825 75.6664 1.26984 75.5909 1.32063C75.4904 1.39683 75.3646 1.42222 75.2389 1.39683C73.9564 1.04127 72.6488 0.888889 71.3412 0.914286H71.2909H55.6999L55.1718 1.6C54.3923 2.61587 53.8139 3.35238 53.2104 4.06349C53.135 4.16508 53.0092 4.21587 52.9086 4.21587C52.7829 4.21587 52.6823 4.13968 52.6069 4.0381L52.3051 3.55556C51.9028 2.94603 51.5256 2.33651 51.0729 1.67619L50.5448 0.914286H41.6429C41.5675 1.04127 41.4166 1.09206 41.2909 1.06667C40.4862 0.965079 39.6563 0.914286 38.8265 0.914286H30.1006L29.9497 1.21905C29.8743 1.39683 29.6479 1.47302 29.4719 1.39683C28.3403 0.965079 26.7812 0.761905 24.4677 0.761905C21.1987 0.761905 18.3319 1.32064 15.9681 2.4381C14.233 3.27619 11.1148 5.07937 9.68147 8.10159C8.90192 9.75238 8.57502 11.0476 8.62531 12.2159V23.4159H7.87091V12.2413C7.82061 10.9714 8.17267 9.5746 9.00251 7.79683C10.5113 4.54603 13.8055 2.64127 15.6412 1.77778C18.1056 0.609524 21.0729 0.0253968 24.4677 0.0253968C26.6806 0.0253968 28.2397 0.203175 29.4216 0.609524L29.5222 0.406349C29.5976 0.279365 29.7234 0.203175 29.8491 0.203175H38.8013C39.5054 0.203175 40.2347 0.228571 40.9388 0.304762C41.0142 0.228571 41.1148 0.177778 41.2154 0.177778H50.7209C50.8466 0.177778 50.9723 0.228571 51.0226 0.330159L51.6513 1.24444C52.1039 1.90476 52.5063 2.51429 52.9086 3.14921L52.9338 3.1746C53.4116 2.56508 53.9145 1.93016 54.5432 1.11746L55.1718 0.279365C55.2473 0.177778 55.3479 0.126984 55.4736 0.126984H71.2657C72.4728 0.101587 73.7049 0.228571 74.8868 0.507937C74.8868 0.406349 74.912 0.330159 74.9874 0.253968C75.0629 0.177778 75.1634 0.126984 75.264 0.126984L91.7854 0.101587C91.9363 0.101587 92.062 0.203175 92.1375 0.330159L92.6153 1.47302C94.3001 0.177778 96.5633 0 98.575 0H99.7318C99.7821 0 99.8324 0 99.8575 0.0253968C102.297 0.152381 104.736 0.761905 106.597 1.72698C109.137 3.07302 111.35 5.02857 112.959 7.41587C113.839 8.73651 114.769 10.8444 114.694 12.7746L114.744 24.3556Z" fill="#2A076C"/>
<path d="M23.864 14.527C22.8833 14.7555 21.8774 14.9079 20.8715 14.9841C19.6394 15.1111 18.4826 15.1619 17.5019 15.1619C15.4147 15.1873 12.4726 15.1111 10.9638 13.5619C10.0082 12.5968 10.3099 10.946 11.2655 8.86348C12.2714 6.70475 14.5346 5.07936 16.6972 4.06348C19.1113 2.92063 21.8271 2.53967 24.4675 2.53967C26.5547 2.53967 28.0635 2.71745 29.0442 3.0984C28.2647 4.52063 27.6612 5.43491 26.8062 7.06031C26.7056 6.70475 26.2529 6.37459 25.4231 6.09523C24.6184 5.81586 23.7634 5.68888 22.9084 5.68888C21.5002 5.66348 20.092 5.94285 18.8095 6.50158C17.5773 7.03491 16.6218 7.72062 16.1188 8.83808C15.6159 9.95555 15.6662 10.7428 16.2949 11.2508C16.9235 11.7587 18.03 12.0127 19.6142 12.0127C20.7458 11.9873 21.8774 11.8603 22.9839 11.6063C24.2412 11.3524 25.1213 11.0222 25.6243 10.6159C24.9202 12.2413 24.4927 12.9778 23.864 14.527Z" fill="#1E063B"/>
<path d="M17.0994 15.5428C14.5848 15.5428 12.1204 15.2888 10.7122 13.8158C9.42968 12.5206 10.1589 10.3873 10.9385 8.68568C12.1455 6.0698 14.962 4.44441 16.5462 3.7079C18.7591 2.66663 21.3492 2.15869 24.4674 2.15869C26.63 2.15869 28.164 2.36187 29.195 2.74282C29.2956 2.79361 29.371 2.8698 29.4213 2.97139C29.4464 3.07298 29.4464 3.19996 29.3962 3.27615C29.0441 3.91107 28.7423 4.44441 28.4406 4.97774C28.0382 5.63806 27.6359 6.32377 27.1832 7.23806C27.1078 7.36504 26.9569 7.46663 26.806 7.44123C26.6552 7.41583 26.5294 7.31425 26.4791 7.16187C26.454 7.06028 26.278 6.78091 25.3475 6.47615C24.568 6.22218 23.7633 6.0952 22.9586 6.0952C21.5755 6.0698 20.2679 6.34917 18.9854 6.8825C17.6527 7.46663 16.8982 8.10155 16.521 9.01583C15.993 10.2603 16.2444 10.692 16.5713 10.9968C17.1246 11.4539 18.1556 11.6825 19.6644 11.6825C20.7708 11.6571 21.8773 11.5301 22.9335 11.2762C24.1405 11.0222 24.9703 10.7174 25.423 10.3619C25.5487 10.2603 25.7499 10.2603 25.8756 10.3619C26.0014 10.4635 26.0516 10.6666 25.9762 10.819C25.6996 11.4793 25.4481 11.9873 25.2218 12.4698C24.8949 13.1809 24.5931 13.7904 24.2411 14.6793C24.2411 14.7047 24.2159 14.7301 24.2159 14.7555L24.1908 14.7301C24.1405 14.8063 24.0651 14.8571 23.9645 14.8825C22.9586 15.1111 21.9527 15.2635 20.9217 15.365C19.8153 15.4666 18.6585 15.5174 17.5018 15.5428C17.376 15.5428 17.2252 15.5428 17.0994 15.5428ZM24.4674 2.9206C21.4498 2.9206 18.9603 3.40314 16.8731 4.41901C15.3894 5.10472 12.7239 6.62853 11.6174 9.01583C10.6116 11.1746 10.511 12.546 11.2402 13.2825C12.7239 14.8063 15.9678 14.7809 17.5018 14.7809C18.6334 14.7809 19.7398 14.7047 20.8463 14.6031C21.7767 14.5269 22.682 14.4 23.5873 14.1968C23.9142 13.3587 24.2159 12.7492 24.5177 12.1142C24.6183 11.9111 24.7189 11.7079 24.8195 11.5047C24.3417 11.6825 23.7633 11.8603 23.0592 12.0127C21.9276 12.2666 20.7708 12.3936 19.6141 12.419C17.9041 12.419 16.7474 12.1396 16.0433 11.5809C15.0625 10.7682 15.4146 9.54917 15.7666 8.73647C16.2444 7.64441 17.1246 6.8571 18.6334 6.19679C19.9913 5.61266 21.4247 5.33329 22.8832 5.35869C23.7633 5.35869 24.6686 5.51107 25.4984 5.79044C26.0265 5.96821 26.4288 6.17139 26.7055 6.39996C27.0575 5.73964 27.3844 5.18091 27.7113 4.64758C27.9628 4.21583 28.1891 3.80949 28.4406 3.37774C27.5856 3.04758 26.2528 2.9206 24.4674 2.9206Z" fill="#2A076C"/>
<path d="M43.0763 14.1715C43.1266 14.4763 43.2523 14.7302 43.4284 14.9842H37.6949C37.4937 14.5779 37.4686 13.8414 37.6195 12.7747C37.6949 12.3937 37.5943 12.0128 37.3429 11.7334C37.0914 11.5048 36.6388 11.3779 35.9849 11.3779H32.1878C31.6597 12.8509 31.3831 13.5366 30.9808 14.9842H25.6748C27.259 10.7683 29.0948 6.65405 31.1568 2.66675H38.8265C40.964 2.66675 42.4225 2.94611 43.2523 3.58103C44.0822 4.21595 44.3336 5.15564 44.0822 6.40008C43.7804 7.92389 42.8751 8.93977 41.0646 9.54929C41.0646 9.57469 41.0646 9.60008 41.0394 9.62548C41.4166 9.67627 41.7938 9.80326 42.1459 9.98104C42.4225 10.1334 42.6237 10.362 42.7494 10.6414C42.8751 10.9207 42.9506 11.2001 42.9757 11.5048C43.0009 11.8858 43.0009 12.2921 42.9757 12.6985C43.0009 13.2064 43.0009 13.689 43.0763 14.1715ZM36.9405 8.43183C37.4686 8.45723 37.9967 8.35564 38.4745 8.12707C38.8517 7.94929 39.1283 7.59373 39.254 7.18738C39.3797 6.85723 39.3043 6.45088 39.0277 6.2223C38.7511 5.99373 38.3236 5.89215 37.7452 5.89215H34.0989C33.7217 6.73024 33.3948 7.56834 33.1182 8.43183H36.9405Z" fill="#1E063B"/>
<path d="M43.4283 15.3651H37.6948C37.5439 15.3651 37.4182 15.2889 37.3679 15.162C37.1165 14.7048 37.0913 13.9175 37.2422 12.7239V12.6985C37.2925 12.4445 37.217 12.1905 37.041 11.9874C36.9404 11.8858 36.6387 11.7334 35.9597 11.7588H32.4392C32.3386 12.0128 32.2631 12.2667 32.1877 12.4699C31.8608 13.3588 31.6345 13.9937 31.3327 15.0604C31.2824 15.2128 31.1315 15.3397 30.9807 15.3397H25.6747C25.549 15.3397 25.4232 15.2889 25.373 15.1874C25.2975 15.0858 25.2975 14.9588 25.3227 14.8318C26.9069 10.6159 28.7678 6.47624 30.8298 2.48894C30.9052 2.36196 31.031 2.28577 31.1567 2.28577H38.8264C41.0896 2.28577 42.5984 2.61593 43.4786 3.27624C44.1324 3.75878 44.8113 4.72386 44.4593 6.50164C44.1827 7.89847 43.4031 8.88894 42.0955 9.57466C42.1709 9.60005 42.2715 9.65085 42.347 9.70164C42.699 9.90481 42.9756 10.1842 43.1265 10.5397C43.2774 10.8445 43.378 11.1747 43.4031 11.5302C43.4283 11.9366 43.4283 12.3683 43.4031 12.7493C43.378 13.2064 43.4031 13.6889 43.4534 14.1461C43.4786 14.3747 43.5791 14.5778 43.73 14.7556C43.8306 14.8572 43.8306 15.035 43.7803 15.162C43.7049 15.2889 43.5791 15.3651 43.4283 15.3651ZM37.9714 14.6032H42.7996C42.7493 14.4762 42.7242 14.3747 42.699 14.2477C42.6236 13.7397 42.6236 13.2318 42.6487 12.7239C42.6739 12.3429 42.6739 11.962 42.6487 11.581C42.6236 11.3524 42.5733 11.0985 42.4475 10.8699C42.347 10.6413 42.1961 10.4889 41.9949 10.362C41.6931 10.2096 41.3662 10.108 41.0142 10.0572C40.8885 10.0318 40.7879 9.981 40.7376 9.85402C40.6873 9.75243 40.6873 9.65085 40.7124 9.54926C40.7376 9.39688 40.8382 9.26989 40.9639 9.2191C42.5984 8.66037 43.4283 7.77148 43.73 6.34926C43.9563 5.2318 43.73 4.4191 43.0511 3.91116C42.3218 3.35243 40.9136 3.07307 38.8516 3.07307H31.4082C29.4719 6.8064 27.7367 10.6921 26.2279 14.6286H30.704C30.9807 13.6889 31.207 13.054 31.4836 12.2413C31.5842 11.962 31.7099 11.6318 31.8356 11.2762C31.8859 11.1239 32.0368 11.0223 32.1877 11.0223H35.9849H36.01C36.7644 11.0223 37.2673 11.1747 37.5942 11.4794C37.9463 11.8604 38.0972 12.3683 37.9966 12.8762C37.8709 13.7905 37.896 14.3239 37.9714 14.6032ZM37.0662 8.81275C37.0159 8.81275 36.9656 8.81275 36.9153 8.81275H36.8901H33.1181C32.9924 8.81275 32.8918 8.76196 32.8164 8.66037C32.7409 8.55878 32.7158 8.4318 32.7661 8.33021C33.0427 7.44132 33.3696 6.57783 33.7719 5.73974C33.8222 5.61275 33.9731 5.51116 34.124 5.51116H37.7703C38.4492 5.51116 38.9522 5.63815 39.2791 5.91751C39.6814 6.27307 39.8071 6.8064 39.6311 7.28894C39.4802 7.79688 39.1533 8.22862 38.6755 8.4572C38.1475 8.68577 37.6194 8.81275 37.0662 8.81275ZM37.0159 8.05085C37.4685 8.05085 37.9211 7.94926 38.3235 7.77148C38.6001 7.6445 38.8013 7.39053 38.8767 7.06037C38.8767 7.03497 38.8767 7.03497 38.9019 7.00958C38.9773 6.8318 38.927 6.60323 38.7761 6.47624C38.6001 6.32386 38.2229 6.24767 37.7451 6.24767H34.3503C34.0989 6.8318 33.8474 7.44132 33.6462 8.02545H36.9656C36.9907 8.02545 37.0159 8.05085 37.0159 8.05085Z" fill="#2A076C"/>
<path d="M52.8328 7.33976C54.3668 5.46039 55.1463 4.52071 56.5545 2.69214C58.5914 2.69214 59.6476 2.69214 61.7599 2.69214C59.547 5.435 57.3592 8.17785 55.1212 10.8953C55.0709 12.5461 55.0457 13.3588 55.0206 14.9842H49.8907C49.9661 13.3588 50.0415 12.5461 50.1673 10.8953C48.231 8.27944 46.4456 5.53658 44.8613 2.69214H49.6141C50.8211 4.46992 51.3492 5.46039 52.7322 7.33976H52.8328Z" fill="#1E063B"/>
<path d="M55.0457 15.3651H49.9158C49.8152 15.3651 49.7146 15.3143 49.6391 15.2381C49.5637 15.162 49.5386 15.0604 49.5386 14.9588C49.5888 13.7397 49.6391 12.9778 49.7397 12.0127C49.7649 11.708 49.79 11.3778 49.8152 10.9969C47.904 8.4064 46.1438 5.68894 44.5595 2.86989C44.4841 2.7429 44.4841 2.61592 44.5595 2.48894C44.6349 2.36195 44.7607 2.31116 44.8864 2.31116H49.6391C49.7649 2.31116 49.8906 2.36195 49.9409 2.48894C50.4187 3.17465 50.7707 3.75878 51.1479 4.31751C51.6509 5.10481 52.1287 5.84132 52.8076 6.781C54.1655 5.13021 54.9199 4.19052 56.2527 2.48894C56.3282 2.38735 56.4287 2.33655 56.5545 2.33655H61.7599C61.9107 2.33655 62.0365 2.41274 62.1119 2.56513C62.1622 2.69211 62.1622 2.84449 62.0616 2.97147L60.8797 4.44449C59.1194 6.62862 57.334 8.86354 55.5235 11.0731C55.5235 11.454 55.4983 11.8096 55.4983 12.1397C55.4732 13.1048 55.448 13.8413 55.448 15.035C55.4229 15.1874 55.272 15.3651 55.0457 15.3651ZM50.3181 14.6032H54.6685C54.6685 13.6127 54.6936 12.927 54.7188 12.0635C54.7188 11.708 54.7439 11.327 54.7439 10.8699C54.7439 10.7937 54.7691 10.6921 54.8445 10.6413C56.6802 8.43179 58.5159 6.14608 60.2762 3.93655L60.9552 3.07306H56.7305C55.3726 4.80005 54.6182 5.73973 53.1094 7.5683C53.0339 7.66989 52.9082 7.72068 52.8076 7.69529H52.7322C52.6316 7.69529 52.5059 7.64449 52.4556 7.5429C51.6006 6.40005 51.0725 5.56195 50.5193 4.69846C50.1924 4.19052 49.8655 3.68259 49.438 3.07306H45.5402C47.049 5.68894 48.7087 8.25402 50.5193 10.6667C50.5696 10.7429 50.5947 10.8445 50.5947 10.9207C50.5696 11.3524 50.5444 11.7334 50.4941 12.0889C50.4187 12.927 50.3684 13.6127 50.3181 14.6032Z" fill="#2A076C"/>
<path d="M68.1221 14.9842H63.0928C63.0928 10.8953 63.0676 6.80643 63.0425 2.69214L71.3157 2.66675C73.5538 2.66675 75.1129 2.99691 76.1942 3.75881C77.2755 4.52072 78.0299 5.73977 78.3317 7.28897C78.6334 8.83818 78.2562 9.85405 77.3258 10.6668C76.3954 11.4794 74.61 11.8858 72.0701 11.8858H68.0467C68.097 13.1556 68.1221 13.816 68.1221 14.9842ZM67.8958 8.6604H71.7432C72.2462 8.6858 72.7491 8.58421 73.1766 8.33024C73.5035 8.10167 73.6795 7.69532 73.6041 7.31437C73.5538 6.88262 73.3275 6.50167 72.9754 6.2731C72.5479 6.01913 72.045 5.89215 71.5169 5.91754H67.7952C67.8455 7.035 67.8706 7.59373 67.8958 8.6604Z" fill="#1E063B"/>
<path d="M68.1224 15.3651H63.093C62.8918 15.3651 62.7158 15.1874 62.7158 14.9842C62.7158 12.6731 62.7158 10.362 62.6907 8.02545C62.6907 6.24767 62.6655 4.46989 62.6655 2.69212C62.6655 2.59053 62.7158 2.48894 62.7661 2.41275C62.8416 2.33656 62.9421 2.31116 63.0427 2.31116L71.316 2.28577C73.6547 2.28577 75.2892 2.66672 76.3956 3.45402C77.5775 4.29212 78.3822 5.58735 78.684 7.21275C79.0109 8.81275 78.6337 10.0064 77.5524 10.9461C76.5465 11.8096 74.7108 12.2413 72.0704 12.2413H72.0453H68.399C68.399 12.4191 68.399 12.5715 68.4241 12.7239C68.4493 13.4858 68.4744 14.0699 68.4744 14.9588C68.4996 15.1874 68.3235 15.3651 68.1224 15.3651ZM63.4702 14.6032H67.7452C67.7452 13.9429 67.72 13.4096 67.6949 12.7747C67.6949 12.5207 67.6697 12.2159 67.6697 11.9112C67.6697 11.8096 67.6949 11.708 67.7703 11.6318C67.8458 11.5556 67.9463 11.5048 68.0469 11.5048H72.0704H72.0956C74.5096 11.5048 76.2448 11.1239 77.0746 10.3874C77.9547 9.62545 78.2314 8.71116 77.9547 7.39053C77.6781 5.96831 76.974 4.82545 75.9681 4.11434C74.9874 3.40323 73.5038 3.09847 71.316 3.09847H63.4451C63.4451 4.74926 63.4451 6.40005 63.4702 8.05085C63.4702 10.2096 63.4702 12.4191 63.4702 14.6032ZM71.9195 9.04132C71.8692 9.04132 71.7938 9.04132 71.7435 9.04132H67.9212C67.72 9.04132 67.544 8.86354 67.544 8.66037C67.5188 7.66989 67.4937 7.11116 67.4686 6.12069V5.91751C67.4686 5.81593 67.4937 5.71434 67.5691 5.63815C67.6446 5.56196 67.7452 5.51116 67.8458 5.51116H71.5675C72.1207 5.48577 72.6991 5.61275 73.202 5.91751C73.6798 6.19688 73.9816 6.70481 74.0318 7.23815C74.1324 7.77148 73.9061 8.33021 73.4535 8.63497C72.9254 8.91434 72.4225 9.04132 71.9195 9.04132ZM68.2732 8.27942H71.7435C72.1961 8.30481 72.6236 8.20323 73.0008 8.00005C73.1769 7.87307 73.2775 7.6191 73.2272 7.39053C73.2272 7.36513 73.2272 7.36513 73.2272 7.33974C73.202 7.03497 73.026 6.75561 72.7745 6.60323C72.3973 6.40005 71.9698 6.27307 71.5423 6.29847H68.1978C68.223 7.06037 68.2481 7.54291 68.2732 8.27942Z" fill="#2A076C"/>
<path d="M90.4527 2.66675C90.9054 3.68262 91.2826 4.44453 91.9615 5.86675H87.4603C88.6673 8.91437 89.8744 11.962 91.006 15.0096H85.5491C84.7696 11.9366 83.7889 8.91437 82.8836 5.86675H78.3572C78.0554 4.52072 77.9045 3.8096 77.7285 2.66675H90.4527Z" fill="#1E063B"/>
<path d="M91.0057 15.3651H85.5489C85.3728 15.3651 85.2219 15.2382 85.1717 15.0858C84.6184 12.8763 83.9395 10.6413 83.2856 8.48261C83.0593 7.7207 82.833 6.98419 82.6067 6.22229H78.382C78.206 6.22229 78.0551 6.0953 78.0048 5.91753L77.9042 5.46038C77.6528 4.36832 77.5271 3.708 77.3762 2.66673C77.351 2.56514 77.4013 2.43816 77.4768 2.36197C77.5522 2.28578 77.6528 2.23499 77.7534 2.23499L90.4525 2.28578C90.6033 2.28578 90.7291 2.36197 90.8045 2.51435C91.1566 3.32705 91.4835 3.96197 91.9361 4.95245L92.2882 5.68895C92.3385 5.81594 92.3385 5.94292 92.263 6.06991C92.1876 6.17149 92.0618 6.24768 91.9361 6.24768H88.0132L88.2395 6.85721C89.2706 9.49848 90.3519 12.2159 91.3577 14.8826C91.408 15.0096 91.3829 15.1366 91.3074 15.2382C91.232 15.3397 91.1314 15.3651 91.0057 15.3651ZM85.8506 14.6032H90.4525C89.522 12.1144 88.5162 9.57467 87.5606 7.11118L87.1079 5.99372C87.0577 5.86673 87.0828 5.73975 87.1582 5.63816C87.2337 5.53657 87.3343 5.46038 87.46 5.46038H91.3577L91.2572 5.25721C90.8297 4.36832 90.5279 3.7588 90.201 3.02229H78.206C78.3317 3.78419 78.4575 4.39372 78.6586 5.308L78.6838 5.46038H82.8833C83.0593 5.46038 83.1851 5.56197 83.2354 5.73975C83.4868 6.57784 83.7383 7.41594 83.9898 8.25403C84.6436 10.3366 85.2974 12.4699 85.8506 14.6032Z" fill="#2A076C"/>
<path d="M98.6002 2.53965C100.813 2.46346 103.529 2.946 105.49 3.98727C107.678 5.13013 109.539 6.80632 110.947 8.86346C111.903 10.2603 112.707 12.5714 111.953 13.7143C111.199 14.8571 109.187 15.1365 106.371 15.1619C103.806 15.1619 101.165 14.8571 98.8517 13.6381C96.8399 12.5968 95.0042 10.8952 94.0235 8.83806C93.2188 7.13648 92.9422 5.18092 93.6966 4.03807C94.451 2.89521 96.1358 2.53965 98.6002 2.53965ZM104.434 12.0127C105.541 12.0127 106.245 11.7079 106.521 11.0984C106.798 10.4889 106.521 9.59997 106.044 8.83806C105.415 7.89838 104.56 7.11108 103.604 6.52695C102.674 5.96822 101.618 5.66346 100.511 5.63807C99.4552 5.63807 98.8014 5.94283 98.5247 6.52695C98.2481 7.11108 98.4745 8.05076 98.9019 8.83806C99.4552 9.77775 100.26 10.565 101.19 11.0984C102.196 11.6825 103.328 11.9873 104.434 12.0127Z" fill="#1E063B"/>
<path d="M106.22 15.5429C103.152 15.5429 100.662 15.0349 98.6756 13.9683C96.4627 12.8254 94.6521 10.9969 93.6966 8.9905C92.9422 7.3905 92.4644 5.20638 93.4199 3.80955C94.4007 2.36193 96.6136 2.15876 98.6253 2.15876C101.065 2.08257 103.78 2.6413 105.692 3.63177C107.879 4.82542 109.816 6.55241 111.249 8.63495C112.154 9.98098 113.185 12.4953 112.255 13.9175C111.4 15.2381 109.262 15.5175 106.345 15.5429C106.295 15.5429 106.245 15.5429 106.22 15.5429ZM98.575 2.92066C95.9849 2.92066 94.627 3.32701 93.9983 4.2413C93.3696 5.18098 93.4954 6.90796 94.3504 8.66034C95.2305 10.5143 96.9405 12.2159 99.0025 13.2826C100.889 14.273 103.252 14.7556 106.22 14.7556C106.27 14.7556 106.32 14.7556 106.345 14.7556C108.659 14.7556 110.897 14.5778 111.626 13.4857C112.23 12.5461 111.576 10.4635 110.62 9.0413C109.262 7.06034 107.427 5.40955 105.314 4.29209C103.529 3.4032 100.914 2.84447 98.575 2.92066C98.6002 2.92066 98.6002 2.92066 98.575 2.92066ZM104.434 12.3937C104.409 12.3937 104.409 12.3937 104.384 12.3937C103.202 12.3683 102.045 12.0381 101.014 11.454C100.008 10.8953 99.1785 10.0572 98.6002 9.06669C98.3738 8.66034 97.7452 7.33971 98.1978 6.40003C98.5499 5.66352 99.3294 5.30796 100.511 5.30796C101.668 5.30796 102.8 5.63812 103.78 6.24765C104.786 6.85717 105.666 7.69527 106.345 8.68574C106.974 9.67622 107.15 10.6413 106.848 11.3016C106.521 12.0127 105.717 12.3937 104.434 12.3937ZM100.511 6.01907C99.6312 6.01907 99.1031 6.24765 98.8768 6.67939C98.6756 7.08574 98.8265 7.87304 99.254 8.63495C99.7569 9.49844 100.511 10.2349 101.391 10.7429C102.322 11.3016 103.378 11.581 104.459 11.581C104.484 11.581 104.484 11.581 104.51 11.581C105.415 11.581 105.993 11.3524 106.194 10.8953C106.396 10.4889 106.194 9.75241 105.742 9.0159C105.138 8.12701 104.334 7.36511 103.428 6.80638C102.548 6.32384 101.542 6.04447 100.511 6.01907Z" fill="#2A076C"/>
<path d="M23.864 14.527C22.8833 14.7555 21.8774 14.9079 20.8715 14.9841C19.6394 15.1111 18.4826 15.1619 17.5019 15.1619C15.4147 15.1873 12.4726 15.1111 10.9638 13.5619C10.0082 12.5968 10.3099 10.946 11.2655 8.86348C12.2714 6.70475 14.5346 5.07935 16.6972 4.06348C19.1113 2.92063 21.8271 2.53967 24.4675 2.53967C26.5547 2.53967 28.0635 2.71745 29.0442 3.0984C28.2647 4.52062 27.6612 5.43491 26.8062 7.06031C26.7056 6.70475 26.2529 6.37459 25.4231 6.09523C24.6184 5.81586 23.7634 5.68888 22.9084 5.68888C21.5002 5.66348 20.092 5.94285 18.8095 6.50158C17.5773 7.03491 16.6218 7.72062 16.1188 8.83808C15.6159 9.95554 15.6662 10.7428 16.2949 11.2508C16.9235 11.7587 18.03 12.0127 19.6142 12.0127C20.7458 11.9873 21.8774 11.8603 22.9839 11.6063C24.2412 11.3524 25.1213 11.0222 25.6243 10.6159C24.9202 12.2413 24.4927 12.9778 23.864 14.527Z" fill="#2A076C"/>
<path d="M43.0758 14.1714C43.1261 14.4762 43.2518 14.7301 43.4279 14.9841H37.6944C37.4933 14.5777 37.4681 13.8412 37.619 12.7746C37.6944 12.3936 37.5938 12.0127 37.3424 11.7333C37.0909 11.5047 36.6383 11.3777 35.9845 11.3777H32.1873C31.6592 12.8508 31.3826 13.5365 30.9803 14.9841H25.6743C27.2586 10.7682 29.0943 6.65393 31.1563 2.66663H38.826C40.9635 2.66663 42.422 2.94599 43.2518 3.58091C44.0817 4.21583 44.3332 5.15552 44.0817 6.39996C43.7799 7.92377 42.8746 8.93964 41.0641 9.54917C41.0641 9.57456 41.0641 9.59996 41.0389 9.62536C41.4161 9.67615 41.7933 9.80313 42.1454 9.98091C42.422 10.1333 42.6232 10.3619 42.7489 10.6412C42.8746 10.9206 42.9501 11.2 42.9752 11.5047C43.0004 11.8857 43.0004 12.292 42.9752 12.6984C43.0004 13.2063 43.0004 13.6888 43.0758 14.1714ZM36.94 8.43171C37.4681 8.4571 37.9962 8.35552 38.474 8.12694C38.8512 7.94917 39.1278 7.59361 39.2535 7.18726C39.3793 6.8571 39.3038 6.45075 39.0272 6.22218C38.7506 5.99361 38.3231 5.89202 37.7447 5.89202H34.0985C33.7213 6.73012 33.3943 7.56821 33.1177 8.43171H36.94Z" fill="#2A076C"/>
<path d="M52.8328 7.33964C54.3668 5.46027 55.1463 4.52059 56.5545 2.69202C58.5914 2.69202 59.6476 2.69202 61.7599 2.69202C59.547 5.43487 57.3592 8.17773 55.1212 10.8952C55.0709 12.546 55.0457 13.3587 55.0206 14.9841H49.8907C49.9661 13.3587 50.0415 12.546 50.1673 10.8952C48.231 8.27932 46.4456 5.53646 44.8613 2.69202H49.6141C50.8211 4.46979 51.3492 5.46027 52.7322 7.33964H52.8328Z" fill="#2A076C"/>
<path d="M68.1226 14.9841H63.0933C63.0933 10.8952 63.0681 6.80631 63.043 2.69202L71.3162 2.66663C73.5543 2.66663 75.1134 2.99678 76.1947 3.75869C77.276 4.52059 78.0304 5.73964 78.3322 7.28885C78.6339 8.83806 78.2567 9.85393 77.3263 10.6666C76.3959 11.4793 74.6104 11.8857 72.0706 11.8857H68.0472C68.0975 13.1555 68.1226 13.8158 68.1226 14.9841ZM67.8963 8.66028H71.7437C72.2467 8.68567 72.7496 8.58409 73.1771 8.33012C73.504 8.10155 73.68 7.6952 73.6046 7.31425C73.5543 6.8825 73.328 6.50155 72.9759 6.27298C72.5484 6.01901 72.0455 5.89202 71.5174 5.91742H67.7957C67.846 7.03488 67.8711 7.59361 67.8963 8.66028Z" fill="#2A076C"/>
<path d="M90.4523 2.66663C90.9049 3.6825 91.2821 4.4444 91.9611 5.86663H87.4598C88.6668 8.91424 89.8739 11.9619 91.0055 15.0095H85.5487C84.7691 11.9365 83.7884 8.91424 82.8831 5.86663H78.3567C78.0549 4.52059 77.9041 3.80948 77.728 2.66663H90.4523Z" fill="#2A076C"/>
<path d="M98.6002 2.53965C100.813 2.46346 103.529 2.946 105.49 3.98727C107.678 5.13013 109.539 6.80632 110.947 8.86346C111.903 10.2603 112.707 12.5714 111.953 13.7143C111.199 14.8571 109.187 15.1365 106.371 15.1619C103.806 15.1619 101.165 14.8571 98.8517 13.6381C96.8399 12.5968 95.0042 10.8952 94.0235 8.83806C93.2188 7.13648 92.9422 5.18092 93.6966 4.03806C94.451 2.89521 96.1358 2.53965 98.6002 2.53965ZM104.434 12.0127C105.541 12.0127 106.245 11.7079 106.521 11.0984C106.798 10.4889 106.521 9.59997 106.044 8.83806C105.415 7.89838 104.56 7.11108 103.604 6.52695C102.674 5.96822 101.618 5.66346 100.511 5.63806C99.4552 5.63806 98.8014 5.94283 98.5247 6.52695C98.2481 7.11108 98.4745 8.05076 98.9019 8.83806C99.4552 9.77775 100.26 10.565 101.19 11.0984C102.196 11.6825 103.328 11.9873 104.434 12.0127Z" fill="#2A076C"/>
<path d="M55.4232 26.0825C57.2589 26.0571 59.0946 26.4127 60.8046 27.0984C62.1625 27.6571 63.3695 28.546 64.3 29.7143V27.7841L64.7023 26.7682H72.3721V44.8762C72.3469 48.6857 71.3159 51.4539 69.3042 53.1809C67.2924 54.9079 64.1491 55.7714 59.9245 55.7714C55.5489 55.7714 50.7962 55.1873 45.6914 54.0444L46.7476 48.2539L47.8792 47.4158C50.1927 47.873 52.1793 48.2032 53.8138 48.4063C55.398 48.6095 56.9823 48.7365 58.5917 48.7365C60.4777 48.7365 61.8859 48.4317 62.8415 47.8476C63.797 47.2635 64.2748 46.1714 64.2748 44.5714V43.3524C63.3695 44.5206 62.1625 45.4349 60.8046 45.9682C59.0946 46.6539 57.2589 47.0095 55.4232 46.9841C53.6126 46.9841 51.8272 46.6285 50.1424 45.9428C48.4827 45.2571 47.0745 44.0635 46.0686 42.5651C45.0125 40.9905 44.4844 38.9841 44.4844 36.546C44.4844 34.1079 45.0125 32.1016 46.0686 30.527C47.0745 29.0031 48.4827 27.8349 50.1424 27.1492C51.8272 26.4381 53.6126 26.0825 55.4232 26.0825ZM58.5917 40.5587C60.7543 40.5587 62.3134 40.2285 63.269 39.5428C64.2245 38.8571 64.7023 37.8412 64.7023 36.4952C64.7023 35.1492 64.2245 34.1333 63.269 33.473C62.3134 32.8127 60.7543 32.4571 58.5917 32.4571C56.4291 32.4571 54.87 32.7873 53.9144 33.473C52.9588 34.1587 52.481 35.1492 52.481 36.4952C52.481 37.8412 52.9588 38.8571 53.9144 39.5428C54.87 40.2285 56.4291 40.5587 58.5917 40.5587ZM55.4232 25.8285C53.5875 25.8285 51.7518 26.1841 50.0418 26.8952C48.3318 27.6063 46.8733 28.8254 45.8674 30.3746C44.7861 31.9746 44.2329 34.0317 44.2329 36.546C44.2329 39.0603 44.7861 41.1174 45.8674 42.7174C46.8985 44.2666 48.357 45.4857 50.0418 46.1968C51.7518 46.9079 53.5875 47.2635 55.4232 47.2635C57.3092 47.2889 59.17 46.9333 60.9052 46.2222C62.0871 45.7397 63.1684 45.0031 64.0485 44.0635V44.5968C64.0485 46.0952 63.5959 47.1365 62.7409 47.6698C61.8356 48.2285 60.4525 48.5079 58.6168 48.5079C57.0326 48.5079 55.4483 48.4063 53.8641 48.1778C52.2547 47.9746 50.243 47.619 47.9295 47.1873H47.8792C47.8289 47.1873 47.7786 47.2127 47.7283 47.2381L46.5967 48.0508C46.5464 48.1016 46.4961 48.1524 46.4961 48.2032L45.4148 53.9936C45.3897 54.1206 45.4651 54.2476 45.616 54.2984C50.6956 55.4412 55.4986 56.0254 59.8993 56.0254C64.1742 56.0254 67.3679 55.1365 69.4299 53.3841C71.4919 51.6317 72.5732 48.7619 72.5984 44.8762V26.7682C72.5984 26.6158 72.4978 26.5143 72.3469 26.5143H64.6772C64.5766 26.5143 64.476 26.5904 64.4509 26.6666L64.0485 27.6825C64.0485 27.7079 64.0234 27.7333 64.0234 27.7841V29.0285C63.1432 28.0889 62.0871 27.3524 60.88 26.8698C59.1701 26.1587 57.3092 25.8031 55.4232 25.8285ZM58.5917 40.3047C56.5045 40.3047 54.9706 39.9746 54.0653 39.3397C53.16 38.7047 52.7325 37.7904 52.7325 36.5206C52.7325 35.2508 53.16 34.3365 54.0653 33.7016C54.9706 33.0666 56.5045 32.7365 58.5917 32.7365C60.6789 32.7365 62.2128 33.0666 63.1181 33.7016C64.0234 34.3365 64.4509 35.2508 64.4509 36.5206C64.4509 37.7904 64.0234 38.7047 63.1181 39.3397C62.2128 39.9746 60.6789 40.3047 58.5917 40.3047Z" fill="#2A076C"/>
<path d="M91.5337 40.1778C92.4893 40.1778 93.5706 40.3048 94.5261 40.381C94.7525 44.1905 101.743 50.3111 103.327 52.2667C102.649 52.5715 101.919 52.6984 101.19 52.673C98.5748 52.673 95.5823 51.3016 95.0542 51.0984C92.9168 50.2603 91.76 43.9619 91.5337 40.1778ZM91.5337 39.9238C91.3828 39.9238 91.2822 40.0254 91.2822 40.1778C91.2822 40.1778 91.2822 40.1778 91.2822 40.2032C91.4331 42.4381 91.7852 44.6476 92.3384 46.8318C93.0425 49.4222 93.9226 50.9461 94.9536 51.3524L95.1548 51.4286C96.035 51.8096 98.7508 52.9524 101.19 52.9524C101.97 52.9778 102.724 52.8254 103.453 52.5207C103.529 52.4953 103.579 52.4191 103.604 52.3429C103.629 52.2667 103.604 52.1905 103.554 52.1143C103.177 51.6572 102.523 50.9715 101.693 50.1334C99.1783 47.5429 94.9536 43.2 94.8028 40.381C94.8028 40.254 94.7022 40.1524 94.6016 40.1524L94.1992 40.127C93.3191 40.0254 92.3887 39.9238 91.5337 39.9238Z" fill="#2A076C"/>
<path d="M103.478 21.7397H103.856C103.529 21.9429 98.0719 23.7714 97.7953 24.0254C95.5069 25.8794 94.2245 28.6984 94.325 31.6698C94.4005 34.1079 94.9034 36.0381 95.8087 37.3841C96.714 38.7302 98.0719 39.6191 99.8573 39.9746C99.9328 40 104.132 39.9746 104.208 40C102.699 40.127 101.442 40.1778 100.385 40.1778C99.0778 40.2032 97.745 40.1016 96.4625 39.873C94.828 39.5429 93.5958 38.7302 92.7659 37.5111C92.6905 37.4095 92.6151 37.2825 92.5396 37.1556C92.7911 35.7079 92.9168 34.2603 92.8414 32.8127C92.8162 31.1873 92.5648 29.5873 92.087 28.0381C92.5396 26.9714 93.2186 26.0318 94.0987 25.2952C95.18 24.3302 99.1281 21.7397 103.478 21.7397ZM103.478 21.4857C99.1281 21.4857 95.1297 24.0762 93.9478 25.0667C93.0426 25.8286 92.3384 26.7937 91.8607 27.9111C91.8355 27.9619 91.8355 28.0381 91.8607 28.0889C92.3133 29.6127 92.5648 31.1873 92.5899 32.7873C92.6402 34.2349 92.5396 35.6825 92.2882 37.1048C92.2882 37.1556 92.2882 37.2318 92.3133 37.2825C92.3887 37.4095 92.4642 37.5365 92.5396 37.6635C93.4198 38.9587 94.7022 39.7968 96.3871 40.127C97.6947 40.3556 99.0275 40.4825 100.36 40.4572C101.517 40.4572 102.825 40.4064 104.208 40.2794C104.359 40.2794 104.459 40.1778 104.459 40.0254C104.459 39.873 104.359 39.7714 104.208 39.7714C104.157 39.7714 104.057 39.7714 102.07 39.746C101.14 39.746 100.008 39.746 99.8573 39.746C98.1725 39.3905 96.8649 38.5524 95.9847 37.2572C95.1046 35.9619 94.6268 34.0825 94.5514 31.6698C94.4508 28.8 95.7081 26.0318 97.921 24.2286C98.1222 24.1016 99.983 23.4413 101.341 22.9587C103.051 22.3492 103.805 22.0698 103.981 21.9683C104.107 21.8921 104.132 21.7397 104.057 21.6127C104.007 21.5365 103.931 21.4857 103.856 21.4857H103.478V21.4857Z" fill="#2A076C"/>
<path d="M10.2345 29.5366C10.5866 29.5366 10.9386 29.562 11.2655 29.6128C12.1205 29.6889 12.9504 29.9683 13.7048 30.3747C12.8749 30.4762 12.0954 30.8318 11.517 31.4413C10.662 32.3556 10.2094 33.6508 10.1842 35.4286C10.1339 36.8001 10.4106 38.1715 10.9889 39.4413C10.9889 39.7715 10.9638 40.1016 10.9638 40.4318L11.7182 40.6604C12.5983 41.8032 13.9814 42.7683 15.9177 43.454C16.3955 43.6318 16.8733 43.7588 17.351 43.8604C17.351 43.9366 17.351 44.0382 17.351 44.1397C16.5715 44.3937 15.7417 44.5207 14.9118 44.5207H14.7106C13.7048 44.4699 12.724 44.2667 11.7685 43.9112C9.37954 43.0731 7.745 41.8286 6.83972 40.381C5.93444 38.9334 5.4818 37.181 5.53209 35.1493C5.55724 33.2191 6.06017 31.7715 6.9906 30.781C7.745 29.9683 8.85146 29.5366 10.2345 29.5366ZM10.2597 29.2826C8.80116 29.2826 7.64442 29.7143 6.81458 30.5778C5.83385 31.6191 5.33092 33.1175 5.28063 35.1239C5.23033 37.2064 5.68297 38.9588 6.63855 40.4826C7.64442 42.0572 9.32924 43.2762 11.7182 44.1397C12.6989 44.4953 13.7048 44.7239 14.7358 44.7747H14.937C15.7919 44.7747 16.6469 44.6477 17.4516 44.3683C17.5522 44.3429 17.6277 44.2413 17.6277 44.1143V43.835C17.6277 43.708 17.5522 43.6064 17.4265 43.6064C16.9487 43.5048 16.4709 43.3778 16.0183 43.2001C14.1826 42.5397 12.8246 41.6508 11.9194 40.508C11.8942 40.4572 11.8439 40.4318 11.7936 40.4064L11.4667 40.3048L11.2404 40.2286L11.2655 39.4413C11.2655 39.3905 11.2655 39.3651 11.2404 39.3143C10.6872 38.0953 10.4106 36.7747 10.4608 35.4286C10.486 33.727 10.9135 32.4826 11.7182 31.6191C12.2714 31.0604 13.0007 30.7048 13.7551 30.6286C13.8808 30.6032 13.9814 30.4762 13.9562 30.3493C13.9562 30.2731 13.9059 30.1969 13.8305 30.1715C13.051 29.7397 12.196 29.4604 11.2907 29.3842C10.9638 29.3334 10.6117 29.308 10.2597 29.2826Z" fill="#2A076C"/>
<path d="M13.8305 21.8666C15.968 21.8666 20.3938 23.746 21.3746 24.3301C23.0594 25.2952 24.3922 26.7682 25.2471 28.5206C25.4232 28.8508 25.5489 29.1809 25.6998 29.5365C25.4986 30.6285 25.3729 31.7206 25.3477 32.8127C25.3226 33.4222 25.3226 34.0063 25.3477 34.565C24.7442 34.4889 23.8138 34.3111 23.2103 34.2095C23.2103 31.873 22.7073 29.5619 21.6763 27.4539C20.6956 25.5238 15.6663 23.0095 13.5539 21.8412C13.6294 21.892 13.73 21.892 13.8305 21.8666ZM13.8305 21.6381C13.73 21.6381 13.6294 21.6381 13.5288 21.6381C13.403 21.6635 13.3025 21.7904 13.3276 21.9428C13.3528 22.019 13.3779 22.0698 13.4533 22.1206L14.2077 22.527C16.4458 23.7206 20.6453 25.9809 21.4751 27.6063C22.481 29.6635 22.9839 31.9492 22.9839 34.2349C22.9839 34.3619 23.0845 34.4635 23.2103 34.4889C23.4869 34.5397 23.8641 34.5904 24.2161 34.6666C24.6185 34.7428 25.0208 34.819 25.3477 34.8444H25.3729C25.4483 34.8444 25.4986 34.819 25.5489 34.7682C25.5992 34.7174 25.6243 34.6412 25.6243 34.565C25.5992 34.0063 25.5992 33.4222 25.6243 32.8127C25.6495 31.7206 25.7752 30.6285 25.9764 29.5619C25.9764 29.5111 25.9764 29.4603 25.9512 29.4095C25.8004 29.0031 25.6495 28.673 25.4986 28.3682C24.6185 26.5904 23.2354 25.092 21.5254 24.1016C20.419 23.5174 15.9932 21.6381 13.8305 21.6381Z" fill="#2A076C"/>
<path d="M11.2404 34.7682L15.3142 34.9714C15.3142 34.9714 21.6512 36.2413 25.6243 36.9016C25.7501 37.7143 25.9512 38.5016 26.2027 39.2889C26.3033 39.5682 26.4039 39.8222 26.5045 40.1016L26.3033 46.6793C26.2279 49.3206 22.4056 52.8762 17.9294 52.8762C17.5522 52.8762 17.175 52.8508 16.823 52.8C18.0803 51.7841 22.7073 49.092 22.7828 47.3397C22.8833 43.8349 23.2103 40.6095 23.3108 37.1301C20.5447 36.673 11.2404 34.7682 11.2404 34.7682ZM11.2404 34.5143C11.0895 34.4889 10.989 34.5905 10.9638 34.7428C10.9387 34.8952 11.0393 34.9968 11.1901 35.0222C11.2907 35.0476 20.0669 36.8508 23.0091 37.3587C22.9588 39.0349 22.8582 40.6603 22.7576 42.2349C22.657 43.8857 22.5564 45.6127 22.5061 47.3397C22.4559 48.5587 19.6394 50.4889 17.9797 51.6571C17.4265 52.0381 16.9487 52.3682 16.6721 52.5968C16.5715 52.673 16.5464 52.8508 16.6218 52.9524C16.6721 53.0032 16.7224 53.0285 16.7727 53.0539C17.1499 53.1047 17.5271 53.1301 17.9294 53.1301C20.0921 53.1047 22.1792 52.3428 23.8892 50.946C25.4986 49.6508 26.4793 48.0508 26.5296 46.6539L26.7308 40.0762C26.7308 40.0508 26.7308 40 26.7056 39.9746C26.5799 39.6952 26.5045 39.4413 26.4039 39.1873C26.1524 38.4254 25.9512 37.6381 25.8255 36.8508C25.8004 36.7492 25.7249 36.673 25.6243 36.6476C21.7015 35.9619 15.3896 34.7174 15.3393 34.692H15.3142L11.2404 34.5143Z" fill="#2A076C"/>
<path d="M35.4316 21.6635C37.6948 21.6635 40.4106 23.4667 40.7376 23.746C41.9194 24.6857 43.1013 26.7175 43.7049 28.5714C44.3084 30.4254 44.6101 32.6349 44.5598 35.2254C44.5096 37.8159 44.1575 40.0508 43.4785 41.8032C42.7996 43.5556 41.8189 44.8508 40.5615 45.5873C40.0334 45.8921 37.5439 46.9333 35.8842 46.9333C35.7837 46.9333 35.7082 46.9333 35.6328 46.9333C36.9907 46.1206 40.5112 44.0635 41.2656 42.1333C42.02 40.2032 42.3972 37.7905 42.4224 34.946C42.4475 32.1016 42.1458 29.6889 41.4668 27.6572C40.9136 26.0318 34.3252 21.7905 35.0544 21.7397C35.155 21.7397 35.2807 21.7397 35.3813 21.7397L35.4316 21.6635ZM35.4316 21.4349C35.3059 21.4349 35.2053 21.4349 35.0796 21.4349C34.9538 21.4349 34.8532 21.5365 34.8029 21.6381C34.7275 21.9175 34.9287 22.1206 36.8901 23.6445C38.5246 24.9143 40.989 26.8191 41.2908 27.708C41.9446 29.6889 42.2715 32.127 42.2212 34.8952C42.1709 37.7143 41.7937 40.127 41.0645 42.0064C40.3604 43.8349 36.8901 45.8921 35.5825 46.6794L35.5573 46.7048C35.4316 46.781 35.4065 46.9333 35.4568 47.0603C35.507 47.1365 35.5825 47.1873 35.6579 47.1873C35.7585 47.1873 35.834 47.1873 35.9345 47.1873C37.6697 47.1873 40.1843 46.146 40.7376 45.8159C42.0452 45.054 43.051 43.7333 43.7552 41.9048C44.4341 40.127 44.8113 37.8921 44.8365 35.2254C44.8616 32.6095 44.585 30.3492 43.9563 28.4699C43.2774 26.4381 42.0452 24.4572 40.8884 23.5429C40.4861 23.2127 37.72 21.4349 35.4316 21.4349Z" fill="#2A076C"/>
<path d="M82.2297 21.7397C81.3747 22.7048 76.9237 26.0318 76.4208 27.5302C75.767 29.5365 75.4401 31.9746 75.4652 34.8191C75.4904 37.6635 75.8927 40.0508 76.622 41.981C77.3512 43.9111 81.3496 46.0699 82.6823 46.8826C82.5315 46.9079 82.3806 46.9079 82.2297 46.9079C80.4694 46.9079 78.2062 45.7397 77.7536 45.4603C76.4962 44.7238 75.5407 43.454 74.8617 41.7016C74.1827 39.9492 73.8307 37.7397 73.8055 35.1492C73.7804 32.5587 74.057 30.3238 74.6605 28.4952C75.264 26.6667 77.5524 21.9429 82.2297 21.7397ZM82.2297 21.4857C76.8231 21.7143 74.6857 27.7079 74.4593 28.3937C73.8307 30.2476 73.5541 32.5333 73.5792 35.1492C73.6044 37.7651 73.9816 40 74.6605 41.7778C75.3646 43.6064 76.3705 44.9016 77.653 45.6635C77.6781 45.6889 80.218 47.1619 82.2548 47.1619C82.4057 47.1619 82.5817 47.1619 82.7326 47.1365C82.8332 47.1111 82.9338 47.0349 82.9589 46.9333C82.9841 46.8318 82.9338 46.7302 82.8332 46.654L82.3554 46.3746C80.7963 45.4603 77.5272 43.5048 76.8986 41.9048C76.1693 40.0254 75.7921 37.6381 75.7418 34.8191C75.6915 32 76.0184 29.5873 76.6723 27.6318C76.9992 26.6667 79.2875 24.7111 80.7963 23.3905C81.5507 22.7302 82.1542 22.2222 82.4309 21.9175C82.5063 21.8413 82.5063 21.7397 82.4812 21.6381C82.4309 21.5365 82.3303 21.4857 82.2297 21.4857Z" fill="#2A076C"/>
<path d="M108.357 28.3936C109.01 28.3682 109.664 28.4444 110.318 28.5968C111.173 28.8508 111.626 29.3587 111.651 30.1714C110.167 30.4254 108.709 30.6793 107.225 30.9333C107.2 30.1714 106.798 29.6889 105.993 29.4603C105.415 29.3079 104.811 29.2571 104.207 29.2571C103.805 29.2571 103.327 29.2825 102.824 29.3333C103.428 28.9777 104.534 28.6984 106.144 28.5206C106.898 28.4444 107.627 28.3936 108.357 28.3936ZM108.357 28.1396C107.602 28.1396 106.873 28.1904 106.144 28.2666C104.484 28.4444 103.352 28.7238 102.724 29.1047C102.598 29.1809 102.573 29.3333 102.648 29.4603C102.699 29.5365 102.774 29.5873 102.875 29.5873H102.9C103.403 29.5365 103.855 29.5111 104.258 29.5111C104.836 29.4857 105.415 29.5619 105.968 29.6889C106.672 29.892 106.999 30.273 107.024 30.9333C107.024 31.0095 107.049 31.0857 107.124 31.1365C107.175 31.1619 107.225 31.1873 107.275 31.1873H107.326C108.658 30.9587 110.067 30.7301 111.751 30.4254C111.877 30.4 111.953 30.2984 111.953 30.1714C111.928 29.2571 111.399 28.6476 110.444 28.3682C109.74 28.2158 109.061 28.1396 108.357 28.1396Z" fill="#2A076C"/>
<path d="M111.576 38.9841C111.827 38.9587 112.053 39.0095 112.305 39.0857C112.582 39.2126 112.707 39.5428 112.732 40.0253C112.732 40.4317 112.607 40.8126 112.38 41.1428C112.129 41.4984 111.651 41.9047 110.947 42.3365C109.941 42.9206 108.86 43.4031 107.753 43.7841C106.345 44.3174 105.188 44.5714 104.283 44.5714C103.378 44.5714 102.724 44.292 102.347 43.7587C102.749 43.6571 103.177 43.5047 103.654 43.3269C104.66 42.9714 105.641 42.5396 106.571 42.0063C107.074 41.7269 107.527 41.3714 107.904 40.9142C108.105 40.6095 108.231 40.2539 108.231 39.8984C108.231 39.746 108.206 39.619 108.181 39.4666C109.338 39.238 110.193 39.1111 110.771 39.0349C110.997 39.0095 111.299 38.9841 111.576 38.9841ZM111.576 38.7301C111.274 38.7301 110.972 38.7555 110.696 38.7809C110.193 38.8317 109.438 38.9587 108.105 39.2126C108.03 39.238 107.98 39.2634 107.929 39.3396C107.904 39.3904 107.879 39.4666 107.904 39.5428C107.929 39.6698 107.955 39.7714 107.955 39.8984C107.955 40.2031 107.854 40.5333 107.678 40.7872C107.326 41.1936 106.924 41.5492 106.446 41.8031C105.54 42.3365 104.56 42.7682 103.579 43.0984C103.126 43.2507 102.699 43.4031 102.297 43.5047C102.221 43.5301 102.146 43.5809 102.121 43.6571C102.095 43.7333 102.095 43.8095 102.146 43.8857C102.548 44.4952 103.277 44.7999 104.283 44.7999C105.214 44.7999 106.421 44.5206 107.829 44.0126C108.96 43.6317 110.042 43.1238 111.073 42.5396C111.827 42.0825 112.33 41.6761 112.582 41.2698C112.833 40.8888 112.984 40.4571 112.984 39.9999C112.984 39.4158 112.783 39.0095 112.431 38.8317C112.129 38.7555 111.852 38.7301 111.576 38.7301Z" fill="#2A076C"/>
<path d="M11.4416 21.4857C13.8306 21.4857 15.9429 21.9429 17.7534 23.0095C19.5892 24.0762 21.0477 25.6762 22.0032 27.581C23.0343 29.7143 23.5623 32.0508 23.5372 34.4127C20.9471 34.0572 18.357 33.6762 15.7669 33.2445C15.5908 32.3556 15.1382 31.5429 14.4592 30.9333C13.73 30.2222 12.6738 29.7905 11.2907 29.6127C9.3796 29.3587 7.94624 29.7651 6.99066 30.781C6.03509 31.7968 5.5573 33.1937 5.53215 35.1492C5.48186 37.181 5.9345 38.9079 6.86493 40.3556C7.79536 41.8032 9.42989 43.0476 11.7937 43.8857C12.7241 44.2413 13.73 44.4445 14.7358 44.4952C15.6411 44.5206 16.5213 44.3937 17.3762 44.1143L17.326 42.2603C15.1885 41.7016 13.0762 41.0921 10.9638 40.4318C11.0141 38.5016 11.0644 36.546 11.1147 34.6159C15.1885 35.4794 19.3125 36.2413 23.4617 36.927C23.3612 40.4064 23.2354 43.9111 23.1348 47.4159C23.0594 50.5397 20.4693 53.0286 17.3762 52.927C17.3008 52.927 17.2505 52.927 17.1751 52.927H17.1248C15.2639 52.7746 13.2773 52.1905 11.165 51.1746C8.49946 49.9048 -1.10657 43.9619 0.100469 32.7365C1.18178 22.9079 8.85152 21.4857 11.4416 21.4857Z" fill="#2A076C"/>
<path d="M92.8412 32.7619C92.7658 30.3746 92.3634 28.3936 91.609 26.7428C90.9552 25.1936 89.8739 23.8476 88.4908 22.8825C87.0826 21.9428 85.3978 21.4603 83.713 21.4857C81.8521 21.4857 80.293 21.9682 78.9854 23.0095C77.6778 24.0508 76.7222 25.5492 76.0432 27.5555C75.3643 29.5619 75.0625 32 75.1128 34.8444C75.1631 37.6889 75.5403 40.0762 76.2695 42.0063C76.9988 43.9365 78.055 45.3079 79.4129 46.1206C80.7708 46.9333 82.4053 47.1111 84.3165 46.6793C86.127 46.273 87.7616 45.3587 89.0692 44.0381C90.402 42.692 91.3827 41.0159 91.9611 39.2127C92.64 37.1047 92.9418 34.946 92.8412 32.7619ZM81.8521 32.2539C80.0667 32.2539 78.6333 30.8063 78.6333 29.0032C78.6333 27.2 80.0667 25.7524 81.8521 25.7524C83.6375 25.7524 85.0709 27.2 85.0709 29.0032C85.0709 30.8063 83.6124 32.2539 81.8521 32.2539Z" fill="#2A076C"/>
<path d="M101.995 42.5397C102.07 44.6984 104.007 45.181 107.753 43.7841C108.86 43.4032 109.916 42.9206 110.947 42.3365C111.676 41.9048 112.154 41.4984 112.38 41.1429C112.607 40.8127 112.733 40.4064 112.733 40.0254C112.733 39.5429 112.582 39.2381 112.305 39.0857C112.028 38.9333 111.5 38.9333 110.721 39.0349C109.941 39.1365 108.608 39.3905 106.748 39.746C103.931 40.2794 101.618 40.3556 99.8323 39.9746C98.0468 39.5937 96.7141 38.7302 95.7836 37.3841C94.8532 36.0381 94.3754 34.1079 94.3 31.6698C94.1994 28.3683 95.1801 25.7778 97.2673 24.0254C99.3545 22.273 102.246 21.4857 105.943 21.4857C110.092 21.4857 113.311 22.273 115.549 23.5429C117.787 24.8127 118.969 26.5397 119.12 28.927C116.63 29.3841 114.141 29.8413 111.626 30.2476C111.601 29.4095 111.173 28.8762 110.293 28.6222C109.413 28.3683 108.03 28.3429 106.144 28.546C104.484 28.7238 103.378 29.0032 102.774 29.3841C102.171 29.7651 101.894 30.2476 101.919 30.8317C101.894 31.2381 102.07 31.6191 102.372 31.873C102.649 32.1016 103.202 32.254 104.007 32.3048C105.239 32.381 106.496 32.3556 107.728 32.2794C110.746 32.0762 113.059 31.9746 114.694 32.0254C116.328 32.0762 117.611 32.4571 118.567 33.1429C119.522 33.8286 120 35.0222 120 36.8508C120 39.4159 119.019 41.7524 117.033 44.0381C115.046 46.3238 112.154 48.6349 108.181 50.5905C103.956 52.673 100.637 53.2317 98.3235 52.2921C96.01 51.3524 94.6772 44.3683 94.4257 40.2032C99.3796 42.0571 99.3796 41.6762 101.995 42.5397Z" fill="#2A076C"/>
<path d="M64.7023 26.7429V30.2477C63.7467 28.8254 62.3888 27.708 60.8046 27.0731C59.0946 26.3873 57.2589 26.0318 55.4232 26.0572C53.6126 26.0572 51.8272 26.4127 50.1424 27.0984C48.4827 27.7842 47.0745 28.9778 46.0686 30.4762C45.0125 32.0254 44.4844 34.0318 44.4844 36.4953C44.4844 38.9588 45.0125 40.9397 46.0686 42.5143C47.0745 44.0381 48.4827 45.2064 50.1424 45.8921C51.8272 46.5778 53.6126 46.9334 55.4232 46.9334C57.2589 46.9588 59.0946 46.6032 60.8046 45.9175C62.3888 45.2826 63.7467 44.1905 64.7023 42.7429V45.0794C64.7023 46.8318 64.1742 48.0254 63.1432 48.6603C62.1122 49.2953 60.5531 49.6254 58.5162 49.6254C56.7811 49.6254 55.0208 49.4984 53.2857 49.2699C51.5003 49.0413 49.3377 48.6603 46.7979 48.1778L45.7166 53.9683C50.8213 55.1111 55.5489 55.6953 59.9496 55.6953C64.1742 55.6953 67.2924 54.8318 69.3293 53.1048C71.3662 51.3778 72.3721 48.6096 72.3972 44.8V26.7175H64.7023V26.7429ZM63.269 39.5429C62.3134 40.2286 60.7543 40.5588 58.5917 40.5588C56.4291 40.5588 54.87 40.2286 53.9144 39.5429C52.9588 38.8572 52.481 37.8413 52.481 36.4953C52.481 35.1492 52.9588 34.1334 53.9144 33.4731C54.87 32.8127 56.4291 32.4572 58.5917 32.4572C60.7543 32.4572 62.3134 32.7873 63.269 33.4731C64.2245 34.1588 64.7023 35.1492 64.7023 36.4953C64.7023 37.8413 64.2245 38.8826 63.269 39.5429Z" fill="#2A076C"/>
<path d="M42.1962 27.6063C41.5173 25.6 40.5365 24.0762 39.2289 23.0349C37.9213 21.9936 36.3622 21.4857 34.5013 21.5111C32.7914 21.4603 31.1317 21.9428 29.6983 22.8571C28.3152 23.8222 27.2339 25.1682 26.555 26.7174C25.8006 28.3936 25.3982 30.4 25.3228 32.8127C25.2222 34.9968 25.4988 37.1809 26.1778 39.2635C26.7562 41.0666 27.762 42.7428 29.0696 44.0889C30.3773 45.4095 32.037 46.3492 33.8727 46.7555C35.7587 47.1873 37.3932 46.9841 38.7763 46.1714C40.1593 45.3587 41.2155 43.9619 41.9448 42.0317C42.674 40.1016 43.0764 37.6889 43.1266 34.8444C43.1769 32 42.85 29.6127 42.1962 27.6063ZM36.3873 32.2539C34.6019 32.2539 33.1686 30.8063 33.1686 29.0031C33.1686 27.2 34.6019 25.7524 36.3873 25.7524C38.1727 25.7524 39.6061 27.2 39.6061 29.0031C39.6061 30.8063 38.1727 32.2539 36.3873 32.2539Z" fill="#2A076C"/>
</g>
<path d="M91.044 69.676C91.02 69.748 90.96 69.82 90.864 69.892C90.776 69.964 90.66 70 90.516 70H88.836C88.684 70 88.556 69.956 88.452 69.868C88.356 69.772 88.3 69.664 88.284 69.544L87.24 61.9V61.864C87.24 61.792 87.264 61.732 87.312 61.684C87.368 61.628 87.432 61.6 87.504 61.6H89.568C89.728 61.6 89.856 61.648 89.952 61.744C90.056 61.84 90.116 61.96 90.132 62.104L90.516 65.776L91.212 63.868C91.236 63.788 91.292 63.712 91.38 63.64C91.476 63.56 91.596 63.52 91.74 63.52H92.556C92.7 63.52 92.816 63.56 92.904 63.64C93 63.712 93.06 63.788 93.084 63.868L93.78 65.776L94.164 62.104C94.18 61.96 94.236 61.84 94.332 61.744C94.436 61.648 94.568 61.6 94.728 61.6H96.792C96.864 61.6 96.924 61.628 96.972 61.684C97.028 61.732 97.056 61.792 97.056 61.864V61.9L96.012 69.544C95.996 69.664 95.936 69.772 95.832 69.868C95.736 69.956 95.612 70 95.46 70H93.78C93.636 70 93.516 69.964 93.42 69.892C93.332 69.82 93.276 69.748 93.252 69.676L92.148 67.144L91.044 69.676ZM103.927 67.54H106.099C106.187 67.54 106.263 67.572 106.327 67.636C106.391 67.7 106.423 67.776 106.423 67.864V69.676C106.423 69.764 106.391 69.84 106.327 69.904C106.263 69.968 106.187 70 106.099 70H98.4913C98.4033 70 98.3273 69.968 98.2633 69.904C98.1993 69.84 98.1673 69.764 98.1673 69.676V67.864C98.1673 67.776 98.1993 67.7 98.2633 67.636C98.3273 67.572 98.4033 67.54 98.4913 67.54H100.687V64.06H98.4913C98.4033 64.06 98.3273 64.028 98.2633 63.964C98.1993 63.9 98.1673 63.824 98.1673 63.736V61.924C98.1673 61.836 98.1993 61.76 98.2633 61.696C98.3273 61.632 98.4033 61.6 98.4913 61.6H106.099C106.187 61.6 106.263 61.632 106.327 61.696C106.391 61.76 106.423 61.836 106.423 61.924V63.736C106.423 63.824 106.391 63.9 106.327 63.964C106.263 64.028 106.187 64.06 106.099 64.06H103.927V67.54ZM117.447 69.58C117.479 69.628 117.495 69.68 117.495 69.736C117.495 69.808 117.467 69.872 117.411 69.928C117.363 69.976 117.303 70 117.231 70H114.135C113.951 70 113.807 69.936 113.703 69.808L111.615 67.228V69.676C111.615 69.764 111.583 69.84 111.519 69.904C111.455 69.968 111.379 70 111.291 70H108.819C108.731 70 108.655 69.968 108.591 69.904C108.527 69.84 108.495 69.764 108.495 69.676V61.924C108.495 61.836 108.527 61.76 108.591 61.696C108.655 61.632 108.731 61.6 108.819 61.6H111.291C111.379 61.6 111.455 61.632 111.519 61.696C111.583 61.76 111.615 61.836 111.615 61.924V64.18L113.511 61.804C113.631 61.668 113.779 61.6 113.955 61.6H116.847C116.919 61.6 116.979 61.628 117.027 61.684C117.083 61.732 117.111 61.792 117.111 61.864C117.111 61.928 117.091 61.984 117.051 62.032L114.207 65.5L117.447 69.58ZM124.318 67.54H126.49C126.578 67.54 126.654 67.572 126.718 67.636C126.782 67.7 126.814 67.776 126.814 67.864V69.676C126.814 69.764 126.782 69.84 126.718 69.904C126.654 69.968 126.578 70 126.49 70H118.882C118.794 70 118.718 69.968 118.654 69.904C118.59 69.84 118.558 69.764 118.558 69.676V67.864C118.558 67.776 118.59 67.7 118.654 67.636C118.718 67.572 118.794 67.54 118.882 67.54H121.078V64.06H118.882C118.794 64.06 118.718 64.028 118.654 63.964C118.59 63.9 118.558 63.824 118.558 63.736V61.924C118.558 61.836 118.59 61.76 118.654 61.696C118.718 61.632 118.794 61.6 118.882 61.6H126.49C126.578 61.6 126.654 61.632 126.718 61.696C126.782 61.76 126.814 61.836 126.814 61.924V63.736C126.814 63.824 126.782 63.9 126.718 63.964C126.654 64.028 126.578 64.06 126.49 64.06H124.318V67.54Z" fill="#DE0E7E"/>
<defs>
<clipPath id="clip0">
<rect width="120" height="56" fill="white"/>
</clipPath>
</defs>
</svg>
